<svg width="20" height="20" viewBox="0 0 20 20" fill="none" xmlns="http://www.w3.org/2000/svg">
<path d="M9.99999 3.33334C8.25333 3.33334 6.83333 4.75334 6.83333 6.50001C6.83333 8.21334 8.17333 9.60001 9.92 9.66001C9.97333 9.65334 10.0267 9.65334 10.0667 9.66001C10.08 9.66001 10.0867 9.66001 10.1 9.66001C10.1067 9.66001 10.1067 9.66001 10.1133 9.66001C11.82 9.60001 13.16 8.21334 13.1667 6.50001C13.1667 4.75334 11.7467 3.33334 9.99999 3.33334Z" fill="#121212"/>
<path d="M13.3867 11.4333C11.5267 10.1933 8.49334 10.1933 6.62 11.4333C5.77334 12 5.30667 12.7667 5.30667 13.5867C5.30667 14.4067 5.77334 15.1667 6.61334 15.7267C7.54667 16.3533 8.77334 16.6667 10 16.6667C11.2267 16.6667 12.4533 16.3533 13.3867 15.7267C14.2267 15.16 14.6933 14.4 14.6933 13.5733C14.6867 12.7533 14.2267 11.9933 13.3867 11.4333Z" fill="#121212"/>
<rect x="0.5" y="0.5" width="19" height="19" rx="9.5" stroke="#121212"/>
</svg>
