<svg width="20" height="21" viewBox="0 0 20 21" fill="none" xmlns="http://www.w3.org/2000/svg">
<path d="M1.66667 2.66666H3.11668C4.01668 2.66666 4.72501 3.44166 4.65001 4.33332L3.95834 12.6333C3.84167 13.9916 4.91667 15.1583 6.28333 15.1583H15.1583C16.3583 15.1583 17.4083 14.175 17.5 12.9833L17.95 6.73333C18.05 5.34999 17 4.22499 15.6083 4.22499H4.85001" stroke="#121212" stroke-width="1.5" stroke-miterlimit="10" stroke-linecap="round" stroke-linejoin="round"/>
<path d="M13.5417 19.3333C14.117 19.3333 14.5833 18.867 14.5833 18.2917C14.5833 17.7164 14.117 17.25 13.5417 17.25C12.9664 17.25 12.5 17.7164 12.5 18.2917C12.5 18.867 12.9664 19.3333 13.5417 19.3333Z" stroke="#121212" stroke-width="1.5" stroke-miterlimit="10" stroke-linecap="round" stroke-linejoin="round"/>
<path d="M6.87499 19.3333C7.45029 19.3333 7.91666 18.867 7.91666 18.2917C7.91666 17.7164 7.45029 17.25 6.87499 17.25C6.2997 17.25 5.83333 17.7164 5.83333 18.2917C5.83333 18.867 6.2997 19.3333 6.87499 19.3333Z" stroke="#121212" stroke-width="1.5" stroke-miterlimit="10" stroke-linecap="round" stroke-linejoin="round"/>
<path d="M7.5 7.66666H17.5" stroke="#121212" stroke-width="1.5" stroke-miterlimit="10" stroke-linecap="round" stroke-linejoin="round"/>
<rect x="13" width="6" height="6" rx="3" fill="#FFD600"/>
</svg>
