<svg width="16" height="12" viewBox="0 0 16 12" fill="none" xmlns="http://www.w3.org/2000/svg">
<path d="M14.5941 3.60361C14.5776 3.59857 12.5669 2.99953 11.02 3.89786C9.95344 4.51661 9.24989 5.73853 8.50464 7.03241C7.6581 8.50182 6.78223 10.0221 5.24223 10.9154C4.6856 11.2694 4.04272 11.4644 3.38323 11.4792C3.09722 11.4739 2.81231 11.4423 2.5321 11.3847C2.42416 11.3641 2.31564 11.3465 2.20669 11.332C2.06875 11.3178 1.93503 11.2762 1.81336 11.2097C1.69169 11.1432 1.58451 11.053 1.49809 10.9446C1.41168 10.8361 1.34776 10.7115 1.31009 10.5781C1.27242 10.4446 1.26174 10.305 1.27869 10.1674C1.29564 10.0297 1.33987 9.89688 1.4088 9.77655C1.47772 9.65622 1.56995 9.55085 1.6801 9.4666C1.79024 9.38235 1.91609 9.32092 2.05026 9.2859C2.18444 9.25089 2.32425 9.24298 2.46152 9.26266C2.61369 9.28099 2.7576 9.30665 2.89877 9.3314C3.11724 9.39722 3.34797 9.41169 3.57295 9.37369C3.79794 9.33569 4.01111 9.24624 4.19585 9.11232C5.25369 8.49815 5.95494 7.28036 6.69789 5.99107C7.54719 4.51753 8.42489 2.99311 9.97314 2.09432C10.7549 1.65279 11.6267 1.39481 12.5229 1.3399" stroke="#030303" stroke-linecap="round" stroke-linejoin="round"/>
</svg>
