<svg width="497" height="330" viewBox="0 0 497 330" fill="none" xmlns="http://www.w3.org/2000/svg">
<circle cx="85.6402" cy="8.5" r="4.5" fill="white"/>
<circle cx="167.024" cy="8.5" r="4.5" fill="white"/>
<circle cx="247.64" cy="8.5" r="4.5" fill="white"/>
<circle cx="329.64" cy="4.5" r="4.5" fill="white"/>
<ellipse cx="410.446" cy="4.5" rx="4" ry="4.5" fill="white"/>
<ellipse cx="491.384" cy="4.5" rx="4" ry="4.5" fill="white"/>
<circle cx="491.658" cy="40.5173" r="4.45822" transform="rotate(-90.7656 491.658 40.5173)" fill="white"/>
<circle cx="410.658" cy="40.5173" r="4.45822" transform="rotate(-90.7656 410.658 40.5173)" fill="white"/>
<circle cx="330.289" cy="40.5173" r="4.45822" transform="rotate(-90.7656 330.289 40.5173)" fill="white"/>
<circle cx="247.782" cy="44.5173" r="4.45822" transform="rotate(-90.7656 247.782 44.5173)" fill="white"/>
<circle cx="166.658" cy="44.5173" r="4.45822" transform="rotate(-90.7656 166.658 44.5173)" fill="white"/>
<circle cx="85.6575" cy="44.5173" r="4.45822" transform="rotate(-90.7656 85.6575 44.5173)" fill="white"/>
<ellipse cx="4.32251" cy="8.5" rx="4" ry="4.5" fill="white"/>
<circle cx="4.51739" cy="44.5173" r="4.45822" transform="rotate(-90.7656 4.51739 44.5173)" fill="white"/>
<circle cx="491.658" cy="76.5173" r="4.45822" transform="rotate(-90.7656 491.658 76.5173)" fill="white"/>
<circle cx="410.658" cy="76.5173" r="4.45822" transform="rotate(-90.7656 410.658 76.5173)" fill="white"/>
<circle cx="330.289" cy="76.5173" r="4.45822" transform="rotate(-90.7656 330.289 76.5173)" fill="white"/>
<circle cx="247.782" cy="80.5173" r="4.45822" transform="rotate(-90.7656 247.782 80.5173)" fill="white"/>
<circle cx="166.658" cy="80.5173" r="4.45822" transform="rotate(-90.7656 166.658 80.5173)" fill="white"/>
<circle cx="85.6575" cy="80.5173" r="4.45822" transform="rotate(-90.7656 85.6575 80.5173)" fill="white"/>
<circle cx="4.51739" cy="80.5173" r="4.45822" transform="rotate(-90.7656 4.51739 80.5173)" fill="white"/>
<circle cx="491.658" cy="112.517" r="4.45822" transform="rotate(-90.7656 491.658 112.517)" fill="white"/>
<circle cx="410.658" cy="112.517" r="4.45822" transform="rotate(-90.7656 410.658 112.517)" fill="white"/>
<circle cx="330.289" cy="112.517" r="4.45822" transform="rotate(-90.7656 330.289 112.517)" fill="white"/>
<circle cx="247.782" cy="116.517" r="4.45822" transform="rotate(-90.7656 247.782 116.517)" fill="white"/>
<circle cx="166.658" cy="116.517" r="4.45822" transform="rotate(-90.7656 166.658 116.517)" fill="white"/>
<circle cx="85.6575" cy="116.517" r="4.45822" transform="rotate(-90.7656 85.6575 116.517)" fill="white"/>
<circle cx="4.51739" cy="116.517" r="4.45822" transform="rotate(-90.7656 4.51739 116.517)" fill="white"/>
<circle cx="491.658" cy="148.517" r="4.45822" transform="rotate(-90.7656 491.658 148.517)" fill="white"/>
<circle cx="410.658" cy="148.517" r="4.45822" transform="rotate(-90.7656 410.658 148.517)" fill="white"/>
<circle cx="330.289" cy="148.517" r="4.45822" transform="rotate(-90.7656 330.289 148.517)" fill="white"/>
<circle cx="247.782" cy="152.517" r="4.45822" transform="rotate(-90.7656 247.782 152.517)" fill="white"/>
<circle cx="166.658" cy="152.517" r="4.45822" transform="rotate(-90.7656 166.658 152.517)" fill="white"/>
<circle cx="85.6575" cy="152.517" r="4.45822" transform="rotate(-90.7656 85.6575 152.517)" fill="white"/>
<circle cx="4.51739" cy="152.517" r="4.45822" transform="rotate(-90.7656 4.51739 152.517)" fill="white"/>
<circle cx="491.658" cy="184.517" r="4.45822" transform="rotate(-90.7656 491.658 184.517)" fill="white"/>
<circle cx="410.658" cy="184.517" r="4.45822" transform="rotate(-90.7656 410.658 184.517)" fill="white"/>
<circle cx="330.289" cy="184.517" r="4.45822" transform="rotate(-90.7656 330.289 184.517)" fill="white"/>
<circle cx="247.782" cy="188.517" r="4.45822" transform="rotate(-90.7656 247.782 188.517)" fill="white"/>
<circle cx="166.658" cy="188.517" r="4.45822" transform="rotate(-90.7656 166.658 188.517)" fill="white"/>
<circle cx="85.6575" cy="188.517" r="4.45822" transform="rotate(-90.7656 85.6575 188.517)" fill="white"/>
<circle cx="4.51739" cy="188.517" r="4.45822" transform="rotate(-90.7656 4.51739 188.517)" fill="white"/>
<circle cx="491.658" cy="220.517" r="4.45822" transform="rotate(-90.7656 491.658 220.517)" fill="white"/>
<circle cx="410.658" cy="220.517" r="4.45822" transform="rotate(-90.7656 410.658 220.517)" fill="white"/>
<circle cx="330.289" cy="220.517" r="4.45822" transform="rotate(-90.7656 330.289 220.517)" fill="white"/>
<circle cx="247.782" cy="224.517" r="4.45822" transform="rotate(-90.7656 247.782 224.517)" fill="white"/>
<circle cx="166.658" cy="224.517" r="4.45822" transform="rotate(-90.7656 166.658 224.517)" fill="white"/>
<circle cx="85.6575" cy="224.517" r="4.45822" transform="rotate(-90.7656 85.6575 224.517)" fill="white"/>
<circle cx="4.51739" cy="224.517" r="4.45822" transform="rotate(-90.7656 4.51739 224.517)" fill="white"/>
<circle cx="491.658" cy="255.517" r="4.45822" transform="rotate(-90.7656 491.658 255.517)" fill="white"/>
<circle cx="410.658" cy="255.517" r="4.45822" transform="rotate(-90.7656 410.658 255.517)" fill="white"/>
<circle cx="330.289" cy="255.517" r="4.45822" transform="rotate(-90.7656 330.289 255.517)" fill="white"/>
<circle cx="247.782" cy="259.517" r="4.45822" transform="rotate(-90.7656 247.782 259.517)" fill="white"/>
<circle cx="166.658" cy="259.517" r="4.45822" transform="rotate(-90.7656 166.658 259.517)" fill="white"/>
<circle cx="85.6575" cy="259.517" r="4.45822" transform="rotate(-90.7656 85.6575 259.517)" fill="white"/>
<circle cx="4.51739" cy="259.517" r="4.45822" transform="rotate(-90.7656 4.51739 259.517)" fill="white"/>
<circle cx="491.658" cy="290.517" r="4.45822" transform="rotate(-90.7656 491.658 290.517)" fill="white"/>
<circle cx="410.658" cy="290.517" r="4.45822" transform="rotate(-90.7656 410.658 290.517)" fill="white"/>
<circle cx="330.289" cy="290.517" r="4.45822" transform="rotate(-90.7656 330.289 290.517)" fill="white"/>
<circle cx="247.782" cy="294.517" r="4.45822" transform="rotate(-90.7656 247.782 294.517)" fill="white"/>
<circle cx="166.658" cy="294.517" r="4.45822" transform="rotate(-90.7656 166.658 294.517)" fill="white"/>
<circle cx="85.6575" cy="294.517" r="4.45822" transform="rotate(-90.7656 85.6575 294.517)" fill="white"/>
<circle cx="4.51739" cy="294.517" r="4.45822" transform="rotate(-90.7656 4.51739 294.517)" fill="white"/>
<circle cx="491.658" cy="320.517" r="4.45822" transform="rotate(-90.7656 491.658 320.517)" fill="white"/>
<circle cx="410.658" cy="320.517" r="4.45822" transform="rotate(-90.7656 410.658 320.517)" fill="white"/>
<circle cx="330.289" cy="320.517" r="4.45822" transform="rotate(-90.7656 330.289 320.517)" fill="white"/>
<circle cx="247.782" cy="324.517" r="4.45822" transform="rotate(-90.7656 247.782 324.517)" fill="white"/>
<circle cx="166.658" cy="324.517" r="4.45822" transform="rotate(-90.7656 166.658 324.517)" fill="white"/>
<circle cx="85.6575" cy="324.517" r="4.45822" transform="rotate(-90.7656 85.6575 324.517)" fill="white"/>
<circle cx="4.51739" cy="324.517" r="4.45822" transform="rotate(-90.7656 4.51739 324.517)" fill="white"/>
</svg>
